<mxfile host="app.diagrams.net" modified="2021-01-18T07:21:19.320Z" agent="5.0 (Windows NT 10.0; WOW64) AppleWebKit/537.36 (KHTML, like Gecko) Chrome/85.0.4183.102 Safari/537.36" etag="LgtbkBQxQXPWqEkrhhIS" version="14.2.4" type="github">
  <diagram id="BEi8QlhbUOhncj_a0CZb" name="Page-1">
    <mxGraphModel dx="1527" dy="424" grid="1" gridSize="10" guides="1" tooltips="1" connect="1" arrows="1" fold="1" page="1" pageScale="1" pageWidth="827" pageHeight="1169" math="0" shadow="0">
      <root>
        <mxCell id="0" />
        <mxCell id="1" parent="0" />
        <mxCell id="o49pMG66B1GbFX8KVBfg-3" style="edgeStyle=orthogonalEdgeStyle;rounded=0;orthogonalLoop=1;jettySize=auto;html=1;entryX=0.5;entryY=0;entryDx=0;entryDy=0;" edge="1" parent="1" source="o49pMG66B1GbFX8KVBfg-1" target="o49pMG66B1GbFX8KVBfg-2">
          <mxGeometry relative="1" as="geometry" />
        </mxCell>
        <mxCell id="o49pMG66B1GbFX8KVBfg-1" value="黄伟" style="rounded=1;whiteSpace=wrap;html=1;strokeColor=#6c8ebf;fillColor=none;" vertex="1" parent="1">
          <mxGeometry x="350" y="90" width="120" height="50" as="geometry" />
        </mxCell>
        <mxCell id="o49pMG66B1GbFX8KVBfg-14" style="edgeStyle=orthogonalEdgeStyle;rounded=0;orthogonalLoop=1;jettySize=auto;html=1;entryX=0.5;entryY=0;entryDx=0;entryDy=0;" edge="1" parent="1" source="o49pMG66B1GbFX8KVBfg-2" target="o49pMG66B1GbFX8KVBfg-11">
          <mxGeometry relative="1" as="geometry">
            <Array as="points">
              <mxPoint x="410" y="260" />
              <mxPoint x="710" y="260" />
            </Array>
          </mxGeometry>
        </mxCell>
        <mxCell id="o49pMG66B1GbFX8KVBfg-15" style="edgeStyle=orthogonalEdgeStyle;rounded=0;orthogonalLoop=1;jettySize=auto;html=1;entryX=0.5;entryY=0;entryDx=0;entryDy=0;" edge="1" parent="1" source="o49pMG66B1GbFX8KVBfg-2" target="o49pMG66B1GbFX8KVBfg-12">
          <mxGeometry relative="1" as="geometry">
            <Array as="points">
              <mxPoint x="410" y="260" />
              <mxPoint x="544" y="260" />
            </Array>
          </mxGeometry>
        </mxCell>
        <mxCell id="o49pMG66B1GbFX8KVBfg-16" style="edgeStyle=orthogonalEdgeStyle;rounded=0;orthogonalLoop=1;jettySize=auto;html=1;entryX=0.5;entryY=0;entryDx=0;entryDy=0;" edge="1" parent="1" source="o49pMG66B1GbFX8KVBfg-2" target="o49pMG66B1GbFX8KVBfg-9">
          <mxGeometry relative="1" as="geometry">
            <Array as="points">
              <mxPoint x="410" y="260" />
              <mxPoint x="230" y="260" />
            </Array>
          </mxGeometry>
        </mxCell>
        <mxCell id="o49pMG66B1GbFX8KVBfg-20" style="edgeStyle=orthogonalEdgeStyle;rounded=0;orthogonalLoop=1;jettySize=auto;html=1;entryX=0.5;entryY=0;entryDx=0;entryDy=0;" edge="1" parent="1" source="o49pMG66B1GbFX8KVBfg-2" target="o49pMG66B1GbFX8KVBfg-10">
          <mxGeometry relative="1" as="geometry" />
        </mxCell>
        <mxCell id="o49pMG66B1GbFX8KVBfg-54" style="edgeStyle=elbowEdgeStyle;rounded=0;orthogonalLoop=1;jettySize=auto;elbow=vertical;html=1;entryX=0.356;entryY=-0.044;entryDx=0;entryDy=0;entryPerimeter=0;" edge="1" parent="1" source="o49pMG66B1GbFX8KVBfg-2" target="o49pMG66B1GbFX8KVBfg-38">
          <mxGeometry relative="1" as="geometry">
            <Array as="points">
              <mxPoint x="170" y="260" />
            </Array>
          </mxGeometry>
        </mxCell>
        <mxCell id="o49pMG66B1GbFX8KVBfg-2" value="新湖集团" style="rounded=1;whiteSpace=wrap;html=1;strokeColor=#6c8ebf;gradientColor=#ffffff;fillColor=none;" vertex="1" parent="1">
          <mxGeometry x="350" y="190" width="120" height="50" as="geometry" />
        </mxCell>
        <mxCell id="o49pMG66B1GbFX8KVBfg-4" value="67.22%" style="text;html=1;strokeColor=none;fillColor=none;align=center;verticalAlign=middle;whiteSpace=wrap;rounded=0;" vertex="1" parent="1">
          <mxGeometry x="420" y="160" width="40" height="20" as="geometry" />
        </mxCell>
        <mxCell id="o49pMG66B1GbFX8KVBfg-21" style="edgeStyle=orthogonalEdgeStyle;rounded=0;orthogonalLoop=1;jettySize=auto;html=1;entryX=0.5;entryY=0;entryDx=0;entryDy=0;" edge="1" parent="1" source="o49pMG66B1GbFX8KVBfg-9" target="o49pMG66B1GbFX8KVBfg-10">
          <mxGeometry relative="1" as="geometry">
            <Array as="points">
              <mxPoint x="230" y="360" />
              <mxPoint x="410" y="360" />
            </Array>
          </mxGeometry>
        </mxCell>
        <mxCell id="o49pMG66B1GbFX8KVBfg-9" value="浙江恒兴力控股集团" style="rounded=1;whiteSpace=wrap;html=1;strokeColor=#6c8ebf;gradientColor=#ffffff;fillColor=none;" vertex="1" parent="1">
          <mxGeometry x="170" y="300" width="120" height="50" as="geometry" />
        </mxCell>
        <mxCell id="o49pMG66B1GbFX8KVBfg-48" style="edgeStyle=elbowEdgeStyle;rounded=0;orthogonalLoop=1;jettySize=auto;elbow=vertical;html=1;entryX=0.5;entryY=0;entryDx=0;entryDy=0;" edge="1" parent="1" source="o49pMG66B1GbFX8KVBfg-10" target="o49pMG66B1GbFX8KVBfg-39">
          <mxGeometry relative="1" as="geometry" />
        </mxCell>
        <mxCell id="o49pMG66B1GbFX8KVBfg-49" style="edgeStyle=elbowEdgeStyle;rounded=0;orthogonalLoop=1;jettySize=auto;elbow=vertical;html=1;entryX=0.5;entryY=0;entryDx=0;entryDy=0;" edge="1" parent="1" source="o49pMG66B1GbFX8KVBfg-10" target="o49pMG66B1GbFX8KVBfg-42">
          <mxGeometry relative="1" as="geometry" />
        </mxCell>
        <mxCell id="o49pMG66B1GbFX8KVBfg-50" style="edgeStyle=elbowEdgeStyle;rounded=0;orthogonalLoop=1;jettySize=auto;elbow=vertical;html=1;entryX=0.5;entryY=0;entryDx=0;entryDy=0;" edge="1" parent="1" source="o49pMG66B1GbFX8KVBfg-10" target="o49pMG66B1GbFX8KVBfg-45">
          <mxGeometry relative="1" as="geometry" />
        </mxCell>
        <mxCell id="o49pMG66B1GbFX8KVBfg-51" style="edgeStyle=elbowEdgeStyle;rounded=0;orthogonalLoop=1;jettySize=auto;elbow=vertical;html=1;" edge="1" parent="1" source="o49pMG66B1GbFX8KVBfg-10" target="o49pMG66B1GbFX8KVBfg-38">
          <mxGeometry relative="1" as="geometry" />
        </mxCell>
        <mxCell id="o49pMG66B1GbFX8KVBfg-52" style="edgeStyle=elbowEdgeStyle;rounded=0;orthogonalLoop=1;jettySize=auto;elbow=vertical;html=1;" edge="1" parent="1" source="o49pMG66B1GbFX8KVBfg-10" target="o49pMG66B1GbFX8KVBfg-43">
          <mxGeometry relative="1" as="geometry" />
        </mxCell>
        <mxCell id="o49pMG66B1GbFX8KVBfg-53" style="edgeStyle=elbowEdgeStyle;rounded=0;orthogonalLoop=1;jettySize=auto;elbow=vertical;html=1;entryX=0.5;entryY=0;entryDx=0;entryDy=0;" edge="1" parent="1" source="o49pMG66B1GbFX8KVBfg-10" target="o49pMG66B1GbFX8KVBfg-44">
          <mxGeometry relative="1" as="geometry" />
        </mxCell>
        <mxCell id="o49pMG66B1GbFX8KVBfg-10" value="新湖中宝" style="rounded=1;whiteSpace=wrap;html=1;strokeColor=#6c8ebf;gradientColor=#ffffff;fillColor=none;" vertex="1" parent="1">
          <mxGeometry x="350" y="400" width="120" height="50" as="geometry" />
        </mxCell>
        <mxCell id="o49pMG66B1GbFX8KVBfg-63" style="edgeStyle=elbowEdgeStyle;rounded=0;orthogonalLoop=1;jettySize=auto;elbow=vertical;html=1;entryX=0.5;entryY=0;entryDx=0;entryDy=0;" edge="1" parent="1" source="o49pMG66B1GbFX8KVBfg-11" target="o49pMG66B1GbFX8KVBfg-39">
          <mxGeometry relative="1" as="geometry" />
        </mxCell>
        <mxCell id="o49pMG66B1GbFX8KVBfg-11" value="哈高科" style="rounded=1;whiteSpace=wrap;html=1;strokeColor=#6c8ebf;gradientColor=#ffffff;fillColor=none;" vertex="1" parent="1">
          <mxGeometry x="650" y="300" width="120" height="50" as="geometry" />
        </mxCell>
        <mxCell id="o49pMG66B1GbFX8KVBfg-22" style="edgeStyle=orthogonalEdgeStyle;rounded=0;orthogonalLoop=1;jettySize=auto;html=1;entryX=0.5;entryY=0;entryDx=0;entryDy=0;" edge="1" parent="1" source="o49pMG66B1GbFX8KVBfg-12" target="o49pMG66B1GbFX8KVBfg-10">
          <mxGeometry relative="1" as="geometry">
            <Array as="points">
              <mxPoint x="544" y="360" />
              <mxPoint x="410" y="360" />
            </Array>
          </mxGeometry>
        </mxCell>
        <mxCell id="o49pMG66B1GbFX8KVBfg-12" value="宁波嘉源实业发展" style="rounded=1;whiteSpace=wrap;html=1;strokeColor=#6c8ebf;gradientColor=#ffffff;fillColor=none;" vertex="1" parent="1">
          <mxGeometry x="484" y="300" width="120" height="50" as="geometry" />
        </mxCell>
        <mxCell id="o49pMG66B1GbFX8KVBfg-17" value="100%" style="text;html=1;strokeColor=none;fillColor=none;align=center;verticalAlign=middle;whiteSpace=wrap;rounded=0;" vertex="1" parent="1">
          <mxGeometry x="240" y="270" width="40" height="20" as="geometry" />
        </mxCell>
        <mxCell id="o49pMG66B1GbFX8KVBfg-18" value="99%" style="text;html=1;strokeColor=none;fillColor=none;align=center;verticalAlign=middle;whiteSpace=wrap;rounded=0;" vertex="1" parent="1">
          <mxGeometry x="550" y="270" width="40" height="20" as="geometry" />
        </mxCell>
        <mxCell id="o49pMG66B1GbFX8KVBfg-19" value="16.08%" style="text;html=1;strokeColor=none;fillColor=none;align=center;verticalAlign=middle;whiteSpace=wrap;rounded=0;" vertex="1" parent="1">
          <mxGeometry x="660" y="270" width="40" height="20" as="geometry" />
        </mxCell>
        <mxCell id="o49pMG66B1GbFX8KVBfg-24" value="2.44%" style="text;html=1;strokeColor=none;fillColor=none;align=center;verticalAlign=middle;whiteSpace=wrap;rounded=0;" vertex="1" parent="1">
          <mxGeometry x="190" y="350" width="40" height="20" as="geometry" />
        </mxCell>
        <mxCell id="o49pMG66B1GbFX8KVBfg-25" value="32.41%" style="text;html=1;strokeColor=none;fillColor=none;align=center;verticalAlign=middle;whiteSpace=wrap;rounded=0;" vertex="1" parent="1">
          <mxGeometry x="410" y="340" width="40" height="20" as="geometry" />
        </mxCell>
        <mxCell id="o49pMG66B1GbFX8KVBfg-27" value="5.38%" style="text;html=1;strokeColor=none;fillColor=none;align=center;verticalAlign=middle;whiteSpace=wrap;rounded=0;" vertex="1" parent="1">
          <mxGeometry x="504" y="360" width="40" height="20" as="geometry" />
        </mxCell>
        <mxCell id="o49pMG66B1GbFX8KVBfg-33" value="" style="endArrow=none;html=1;entryX=0;entryY=0.5;entryDx=0;entryDy=0;" edge="1" parent="1" target="o49pMG66B1GbFX8KVBfg-1">
          <mxGeometry width="50" height="50" relative="1" as="geometry">
            <mxPoint x="140" y="115" as="sourcePoint" />
            <mxPoint x="280" y="120" as="targetPoint" />
          </mxGeometry>
        </mxCell>
        <mxCell id="o49pMG66B1GbFX8KVBfg-37" value="11.86%" style="text;html=1;strokeColor=none;fillColor=none;align=center;verticalAlign=middle;whiteSpace=wrap;rounded=0;" vertex="1" parent="1">
          <mxGeometry x="300" y="400" width="40" height="20" as="geometry" />
        </mxCell>
        <mxCell id="o49pMG66B1GbFX8KVBfg-67" style="edgeStyle=elbowEdgeStyle;rounded=0;orthogonalLoop=1;jettySize=auto;elbow=vertical;html=1;exitX=0.5;exitY=1;exitDx=0;exitDy=0;entryX=0.5;entryY=0;entryDx=0;entryDy=0;" edge="1" parent="1" source="o49pMG66B1GbFX8KVBfg-38" target="o49pMG66B1GbFX8KVBfg-65">
          <mxGeometry relative="1" as="geometry" />
        </mxCell>
        <mxCell id="o49pMG66B1GbFX8KVBfg-68" style="edgeStyle=elbowEdgeStyle;rounded=0;orthogonalLoop=1;jettySize=auto;elbow=vertical;html=1;entryX=0.5;entryY=0;entryDx=0;entryDy=0;" edge="1" parent="1" source="o49pMG66B1GbFX8KVBfg-38" target="o49pMG66B1GbFX8KVBfg-66">
          <mxGeometry relative="1" as="geometry" />
        </mxCell>
        <mxCell id="o49pMG66B1GbFX8KVBfg-38" value="新湖控股" style="rounded=1;whiteSpace=wrap;html=1;strokeColor=#6c8ebf;gradientColor=#ffffff;fillColor=none;" vertex="1" parent="1">
          <mxGeometry x="30" y="500" width="100" height="50" as="geometry" />
        </mxCell>
        <mxCell id="o49pMG66B1GbFX8KVBfg-39" value="温州银行" style="rounded=1;whiteSpace=wrap;html=1;strokeColor=#6c8ebf;fillColor=#dae8fc;" vertex="1" parent="1">
          <mxGeometry x="660" y="500" width="100" height="50" as="geometry" />
        </mxCell>
        <mxCell id="o49pMG66B1GbFX8KVBfg-42" value="长城证券" style="rounded=1;whiteSpace=wrap;html=1;strokeColor=#6c8ebf;fillColor=#dae8fc;" vertex="1" parent="1">
          <mxGeometry x="530" y="500" width="100" height="50" as="geometry" />
        </mxCell>
        <mxCell id="o49pMG66B1GbFX8KVBfg-43" value="新湖期货" style="rounded=1;whiteSpace=wrap;html=1;strokeColor=#d79b00;fillColor=#ffe6cc;" vertex="1" parent="1">
          <mxGeometry x="150" y="500" width="100" height="50" as="geometry" />
        </mxCell>
        <mxCell id="o49pMG66B1GbFX8KVBfg-44" value="盛京银行" style="rounded=1;whiteSpace=wrap;html=1;strokeColor=#6c8ebf;fillColor=#dae8fc;" vertex="1" parent="1">
          <mxGeometry x="270" y="500" width="100" height="50" as="geometry" />
        </mxCell>
        <mxCell id="o49pMG66B1GbFX8KVBfg-45" value="中信银行" style="rounded=1;whiteSpace=wrap;html=1;strokeColor=#6c8ebf;fillColor=#dae8fc;" vertex="1" parent="1">
          <mxGeometry x="404" y="500" width="100" height="50" as="geometry" />
        </mxCell>
        <mxCell id="o49pMG66B1GbFX8KVBfg-46" value="" style="endArrow=none;html=1;" edge="1" parent="1">
          <mxGeometry width="50" height="50" relative="1" as="geometry">
            <mxPoint x="140" y="430" as="sourcePoint" />
            <mxPoint x="140" y="120" as="targetPoint" />
          </mxGeometry>
        </mxCell>
        <mxCell id="o49pMG66B1GbFX8KVBfg-47" value="" style="endArrow=classic;html=1;" edge="1" parent="1">
          <mxGeometry width="50" height="50" relative="1" as="geometry">
            <mxPoint x="140" y="435" as="sourcePoint" />
            <mxPoint x="350" y="435" as="targetPoint" />
          </mxGeometry>
        </mxCell>
        <mxCell id="o49pMG66B1GbFX8KVBfg-55" value="52%" style="text;html=1;strokeColor=none;fillColor=none;align=center;verticalAlign=middle;whiteSpace=wrap;rounded=0;" vertex="1" parent="1">
          <mxGeometry x="20" y="480" width="40" height="20" as="geometry" />
        </mxCell>
        <mxCell id="o49pMG66B1GbFX8KVBfg-56" value="48%" style="text;html=1;strokeColor=none;fillColor=none;align=center;verticalAlign=middle;whiteSpace=wrap;rounded=0;" vertex="1" parent="1">
          <mxGeometry x="90" y="480" width="40" height="20" as="geometry" />
        </mxCell>
        <mxCell id="o49pMG66B1GbFX8KVBfg-57" value="91.67%" style="text;html=1;strokeColor=none;fillColor=none;align=center;verticalAlign=middle;whiteSpace=wrap;rounded=0;" vertex="1" parent="1">
          <mxGeometry x="200" y="480" width="40" height="20" as="geometry" />
        </mxCell>
        <mxCell id="o49pMG66B1GbFX8KVBfg-59" value="5.18%" style="text;html=1;strokeColor=none;fillColor=none;align=center;verticalAlign=middle;whiteSpace=wrap;rounded=0;" vertex="1" parent="1">
          <mxGeometry x="320" y="480" width="40" height="20" as="geometry" />
        </mxCell>
        <mxCell id="o49pMG66B1GbFX8KVBfg-60" value="4.74" style="text;html=1;strokeColor=none;fillColor=none;align=center;verticalAlign=middle;whiteSpace=wrap;rounded=0;" vertex="1" parent="1">
          <mxGeometry x="460" y="480" width="40" height="20" as="geometry" />
        </mxCell>
        <mxCell id="o49pMG66B1GbFX8KVBfg-61" value="0.53%" style="text;html=1;strokeColor=none;fillColor=none;align=center;verticalAlign=middle;whiteSpace=wrap;rounded=0;" vertex="1" parent="1">
          <mxGeometry x="580" y="480" width="40" height="20" as="geometry" />
        </mxCell>
        <mxCell id="o49pMG66B1GbFX8KVBfg-62" value="13.61%" style="text;html=1;strokeColor=none;fillColor=none;align=center;verticalAlign=middle;whiteSpace=wrap;rounded=0;" vertex="1" parent="1">
          <mxGeometry x="660" y="480" width="40" height="20" as="geometry" />
        </mxCell>
        <mxCell id="o49pMG66B1GbFX8KVBfg-64" value="1.77%" style="text;html=1;strokeColor=none;fillColor=none;align=center;verticalAlign=middle;whiteSpace=wrap;rounded=0;" vertex="1" parent="1">
          <mxGeometry x="710" y="450" width="40" height="20" as="geometry" />
        </mxCell>
        <mxCell id="o49pMG66B1GbFX8KVBfg-65" value="阳光保险" style="rounded=1;whiteSpace=wrap;html=1;strokeColor=#6c8ebf;fillColor=#dae8fc;" vertex="1" parent="1">
          <mxGeometry x="-70" y="585" width="100" height="50" as="geometry" />
        </mxCell>
        <mxCell id="o49pMG66B1GbFX8KVBfg-79" style="edgeStyle=elbowEdgeStyle;rounded=0;orthogonalLoop=1;jettySize=auto;elbow=vertical;html=1;entryX=0.5;entryY=0;entryDx=0;entryDy=0;" edge="1" parent="1" source="o49pMG66B1GbFX8KVBfg-66" target="o49pMG66B1GbFX8KVBfg-78">
          <mxGeometry relative="1" as="geometry" />
        </mxCell>
        <mxCell id="o49pMG66B1GbFX8KVBfg-66" value="湘财证券" style="rounded=1;whiteSpace=wrap;html=1;strokeColor=#d79b00;fillColor=#ffe6cc;" vertex="1" parent="1">
          <mxGeometry x="70" y="585" width="100" height="50" as="geometry" />
        </mxCell>
        <mxCell id="o49pMG66B1GbFX8KVBfg-69" value="4.06%" style="text;html=1;strokeColor=none;fillColor=none;align=center;verticalAlign=middle;whiteSpace=wrap;rounded=0;" vertex="1" parent="1">
          <mxGeometry x="-60" y="565" width="40" height="20" as="geometry" />
        </mxCell>
        <mxCell id="o49pMG66B1GbFX8KVBfg-70" value="71.15%" style="text;html=1;strokeColor=none;fillColor=none;align=center;verticalAlign=middle;whiteSpace=wrap;rounded=0;" vertex="1" parent="1">
          <mxGeometry x="60" y="575" width="40" height="20" as="geometry" />
        </mxCell>
        <mxCell id="o49pMG66B1GbFX8KVBfg-75" value="" style="endArrow=classic;html=1;" edge="1" parent="1">
          <mxGeometry width="50" height="50" relative="1" as="geometry">
            <mxPoint x="140" y="475" as="sourcePoint" />
            <mxPoint x="140" y="585" as="targetPoint" />
          </mxGeometry>
        </mxCell>
        <mxCell id="o49pMG66B1GbFX8KVBfg-76" value="3.44%" style="text;html=1;strokeColor=none;fillColor=none;align=center;verticalAlign=middle;whiteSpace=wrap;rounded=0;" vertex="1" parent="1">
          <mxGeometry x="150" y="565" width="40" height="20" as="geometry" />
        </mxCell>
        <mxCell id="o49pMG66B1GbFX8KVBfg-78" value="英大证券" style="rounded=1;whiteSpace=wrap;html=1;strokeColor=#6c8ebf;fillColor=#dae8fc;" vertex="1" parent="1">
          <mxGeometry x="70" y="670" width="100" height="50" as="geometry" />
        </mxCell>
        <mxCell id="o49pMG66B1GbFX8KVBfg-80" value="0.74%" style="text;html=1;strokeColor=none;fillColor=none;align=center;verticalAlign=middle;whiteSpace=wrap;rounded=0;" vertex="1" parent="1">
          <mxGeometry x="130" y="650" width="40" height="20" as="geometry" />
        </mxCell>
        <mxCell id="o49pMG66B1GbFX8KVBfg-81" value="控股金融机构" style="rounded=1;whiteSpace=wrap;html=1;fillColor=#ffe6cc;strokeColor=#d79b00;" vertex="1" parent="1">
          <mxGeometry x="580" y="660" width="80" height="20" as="geometry" />
        </mxCell>
        <mxCell id="o49pMG66B1GbFX8KVBfg-82" value="参股金融机构" style="rounded=1;whiteSpace=wrap;html=1;fillColor=#dae8fc;strokeColor=#6c8ebf;" vertex="1" parent="1">
          <mxGeometry x="690" y="660" width="96" height="20" as="geometry" />
        </mxCell>
      </root>
    </mxGraphModel>
  </diagram>
</mxfile>
